<?xml version="1.0" encoding="UTF-8"?>
<svg width="700pt" height="700pt" version="1.1" viewBox="0 0 700 700" xmlns="http://www.w3.org/2000/svg">
 <path d="m527.66 80.922c40.156 0.37891 72.57 32.922 72.801 73.078v195.16c0 40.32-32.48 73.117-72.801 73.5h-203.42l-98 81.48c-2.5156 1.957-5.6289 2.9922-8.8164 2.9453-7.7344 0-14-6.2734-14-14.008v-70h-31.363c-40.48-0.15234-73.219-33.016-73.219-73.5v-195.58c0.23047-40.32 32.898-72.926 73.219-73.078zm-0.53125 55.996h-354.86c-8.6406 0.035156-15.805 6.3281-17.191 14.352l-0.24219 2.7305v195.58c0 8.7656 6.4414 16.027 14.695 17.305l2.5234 0.19531h87.363l-0.03125 36.652 44.609-37.07 223.12 0.003906c8.7266-0.085937 15.914-6.5469 17.148-14.934l0.1875-2.5703v-194.84c-0.046876-8.6055-6.3047-15.742-14.527-17.148zm-252.93 147.78c38.938-38.934 112.66-38.934 151.6 0 10.934 10.938 10.934 28.664 0 39.602-10.938 10.934-28.664 10.934-39.602 0l-3.2227-2.8359c-18.27-14.172-53.117-13.227-69.176 2.8359l-2.6406 2.3281c-10.984 8.5391-26.867 7.7617-36.961-2.3281-10.934-10.938-10.934-28.664 0-39.602zm131.8-116.7c15.465 0 28 12.535 28 28s-12.535 28-28 28-28-12.535-28-28 12.535-28 28-28zm-112 0c15.465 0 28 12.535 28 28s-12.535 28-28 28-28-12.535-28-28 12.535-28 28-28z"/>
</svg>
